<svg width="14" height="14" viewBox="0 0 14 14" fill="none" xmlns="http://www.w3.org/2000/svg">
<path d="M6.58301 7.41683V10.3335C6.58301 10.4521 6.62281 10.5512 6.7024 10.6308C6.78199 10.7104 6.88108 10.7502 6.99967 10.7502C7.11827 10.7502 7.21736 10.7104 7.29695 10.6308C7.37654 10.5512 7.41634 10.4521 7.41634 10.3335V7.41683H10.333C10.4516 7.41683 10.5507 7.37703 10.6303 7.29743C10.7099 7.21785 10.7497 7.11876 10.7497 7.00016C10.7497 6.88157 10.7099 6.78247 10.6303 6.70289C10.5507 6.62329 10.4516 6.5835 10.333 6.5835H7.41634V3.66683C7.41634 3.54823 7.37654 3.44914 7.29695 3.36956C7.21736 3.28996 7.11827 3.25016 6.99967 3.25016C6.88108 3.25016 6.78199 3.28996 6.7024 3.36956C6.62281 3.44914 6.58301 3.54823 6.58301 3.66683V6.5835H3.66634C3.54774 6.5835 3.44865 6.62329 3.36907 6.70289C3.28947 6.78247 3.24967 6.88157 3.24967 7.00016C3.24967 7.11876 3.28947 7.21785 3.36907 7.29743C3.44865 7.37703 3.54774 7.41683 3.66634 7.41683H6.58301ZM1.67915 13.6668C1.29561 13.6668 0.975369 13.5384 0.718424 13.2814C0.46148 13.0245 0.333008 12.7042 0.333008 12.3207V1.67964C0.333008 1.2961 0.46148 0.975857 0.718424 0.718913C0.975369 0.461968 1.29561 0.333496 1.67915 0.333496H12.3202C12.7037 0.333496 13.024 0.461968 13.2809 0.718913C13.5379 0.975857 13.6663 1.2961 13.6663 1.67964V12.3207C13.6663 12.7042 13.5379 13.0245 13.2809 13.2814C13.024 13.5384 12.7037 13.6668 12.3202 13.6668H1.67915ZM1.67915 12.8335H12.3202C12.4484 12.8335 12.5659 12.7801 12.6728 12.6732C12.7796 12.5664 12.833 12.4489 12.833 12.3207V1.67964C12.833 1.55145 12.7796 1.43393 12.6728 1.32708C12.5659 1.22025 12.4484 1.16683 12.3202 1.16683H1.67915C1.55096 1.16683 1.43344 1.22025 1.32659 1.32708C1.21976 1.43393 1.16634 1.55145 1.16634 1.67964V12.3207C1.16634 12.4489 1.21976 12.5664 1.32659 12.6732C1.43344 12.7801 1.55096 12.8335 1.67915 12.8335Z" fill="black"/>
</svg>
