<svg width="20" height="20" viewBox="0 0 20 20" fill="none" xmlns="http://www.w3.org/2000/svg">
<path d="M4.48733 17.5C4.16709 17.5 3.89473 17.3878 3.67023 17.1633C3.44574 16.9388 3.3335 16.6664 3.3335 16.3462V5.12821C3.3335 4.80796 3.44574 4.53559 3.67023 4.31109C3.89473 4.0866 4.16709 3.97436 4.48733 3.97436H6.2101V2.6859C6.2101 2.58248 6.24413 2.4936 6.3122 2.41924C6.38029 2.34487 6.46651 2.30769 6.57087 2.30769C6.68112 2.30769 6.77275 2.34487 6.84577 2.41924C6.91878 2.4936 6.95529 2.58248 6.95529 2.6859V3.97436H13.1091V2.65834C13.1091 2.55192 13.1416 2.46688 13.2065 2.40321C13.2714 2.33953 13.3523 2.30769 13.4491 2.30769C13.5519 2.30769 13.6371 2.34074 13.7047 2.40682C13.7724 2.47289 13.8063 2.55524 13.8063 2.65386V3.97436H15.513C15.8332 3.97436 16.1056 4.0866 16.3301 4.31109C16.5546 4.53559 16.6668 4.80796 16.6668 5.12821V16.3462C16.6668 16.6664 16.5546 16.9388 16.3301 17.1633C16.1056 17.3878 15.8332 17.5 15.513 17.5H4.48733ZM4.48733 16.859H15.513C15.6412 16.859 15.7587 16.8056 15.8656 16.6987C15.9724 16.5919 16.0258 16.4744 16.0258 16.3462V8.75001H3.97452V16.3462C3.97452 16.4744 4.02793 16.5919 4.13477 16.6987C4.24161 16.8056 4.35914 16.859 4.48733 16.859ZM3.97452 8.10896H16.0258V5.12821C16.0258 5.00001 15.9724 4.88249 15.8656 4.77565C15.7587 4.66881 15.6412 4.61538 15.513 4.61538H4.48733C4.35914 4.61538 4.24161 4.66881 4.13477 4.77565C4.02793 4.88249 3.97452 5.00001 3.97452 5.12821V8.10896ZM10.0002 11.7949C9.82815 11.7949 9.67831 11.731 9.55064 11.6034C9.42298 11.4757 9.35914 11.3259 9.35914 11.1539C9.35914 10.9818 9.42298 10.832 9.55064 10.7043C9.67831 10.5767 9.82815 10.5128 10.0002 10.5128C10.1722 10.5128 10.322 10.5767 10.4497 10.7043C10.5773 10.832 10.6412 10.9818 10.6412 11.1539C10.6412 11.3259 10.5773 11.4757 10.4497 11.6034C10.322 11.731 10.1722 11.7949 10.0002 11.7949ZM6.66683 11.7949C6.49482 11.7949 6.34498 11.731 6.21731 11.6034C6.08964 11.4757 6.02581 11.3259 6.02581 11.1539C6.02581 10.9818 6.08964 10.832 6.21731 10.7043C6.34498 10.5767 6.49482 10.5128 6.66683 10.5128C6.83884 10.5128 6.98868 10.5767 7.11635 10.7043C7.24402 10.832 7.30785 10.9818 7.30785 11.1539C7.30785 11.3259 7.24402 11.4757 7.11635 11.6034C6.98868 11.731 6.83884 11.7949 6.66683 11.7949ZM13.3335 11.7949C13.1615 11.7949 13.0116 11.731 12.884 11.6034C12.7563 11.4757 12.6925 11.3259 12.6925 11.1539C12.6925 10.9818 12.7563 10.832 12.884 10.7043C13.0116 10.5767 13.1615 10.5128 13.3335 10.5128C13.5055 10.5128 13.6553 10.5767 13.783 10.7043C13.9107 10.832 13.9745 10.9818 13.9745 11.1539C13.9745 11.3259 13.9107 11.4757 13.783 11.6034C13.6553 11.731 13.5055 11.7949 13.3335 11.7949ZM10.0002 15C9.82815 15 9.67831 14.9362 9.55064 14.8085C9.42298 14.6808 9.35914 14.531 9.35914 14.359C9.35914 14.187 9.42298 14.0371 9.55064 13.9095C9.67831 13.7818 9.82815 13.7179 10.0002 13.7179C10.1722 13.7179 10.322 13.7818 10.4497 13.9095C10.5773 14.0371 10.6412 14.187 10.6412 14.359C10.6412 14.531 10.5773 14.6808 10.4497 14.8085C10.322 14.9362 10.1722 15 10.0002 15ZM6.66683 15C6.49482 15 6.34498 14.9362 6.21731 14.8085C6.08964 14.6808 6.02581 14.531 6.02581 14.359C6.02581 14.187 6.08964 14.0371 6.21731 13.9095C6.34498 13.7818 6.49482 13.7179 6.66683 13.7179C6.83884 13.7179 6.98868 13.7818 7.11635 13.9095C7.24402 14.0371 7.30785 14.187 7.30785 14.359C7.30785 14.531 7.24402 14.6808 7.11635 14.8085C6.98868 14.9362 6.83884 15 6.66683 15ZM13.3335 15C13.1615 15 13.0116 14.9362 12.884 14.8085C12.7563 14.6808 12.6925 14.531 12.6925 14.359C12.6925 14.187 12.7563 14.0371 12.884 13.9095C13.0116 13.7818 13.1615 13.7179 13.3335 13.7179C13.5055 13.7179 13.6553 13.7818 13.783 13.9095C13.9107 14.0371 13.9745 14.187 13.9745 14.359C13.9745 14.531 13.9107 14.6808 13.783 14.8085C13.6553 14.9362 13.5055 15 13.3335 15Z" fill="white"/>
</svg>
