<svg width="48" height="48" viewBox="0 0 48 48" fill="none" xmlns="http://www.w3.org/2000/svg">
<path d="M24 25.4154L13.5077 35.9077C13.3205 36.0949 13.0911 36.1949 12.8193 36.2077C12.5475 36.2205 12.3051 36.1205 12.0923 35.9077C11.8795 35.6949 11.7731 35.459 11.7731 35.2C11.7731 34.941 11.8795 34.7051 12.0923 34.4923L22.5846 24L12.0923 13.5077C11.9051 13.3205 11.8051 13.091 11.7923 12.8192C11.7795 12.5474 11.8795 12.3051 12.0923 12.0923C12.3051 11.8795 12.541 11.773 12.8 11.773C13.059 11.773 13.2949 11.8795 13.5077 12.0923L24 22.5846L34.4923 12.0923C34.6795 11.9051 34.909 11.8051 35.1808 11.7923C35.4526 11.7795 35.6949 11.8795 35.9077 12.0923C36.1205 12.3051 36.227 12.541 36.227 12.8C36.227 13.059 36.1205 13.2949 35.9077 13.5077L25.4154 24L35.9077 34.4923C36.0949 34.6795 36.1949 34.9089 36.2077 35.1807C36.2205 35.4525 36.1205 35.6949 35.9077 35.9077C35.6949 36.1205 35.459 36.2269 35.2 36.2269C34.941 36.2269 34.7051 36.1205 34.4923 35.9077L24 25.4154Z" fill="black"/>
</svg>
