<svg width="12" height="14" viewBox="0 0 12 14" fill="none" xmlns="http://www.w3.org/2000/svg">
<path d="M2.34647 13.6664C1.97628 13.6664 1.65937 13.5346 1.39576 13.271C1.13214 13.0074 1.00033 12.6905 1.00033 12.3203V1.99977H0.583659C0.465603 1.99977 0.366645 1.95978 0.286784 1.87981C0.206923 1.79984 0.166992 1.70075 0.166992 1.58254C0.166992 1.46432 0.206923 1.36541 0.286784 1.28583C0.366645 1.20623 0.465603 1.16643 0.583659 1.16643H3.50033C3.50033 0.994419 3.56416 0.844578 3.69183 0.716911C3.81951 0.589231 3.96935 0.525391 4.14135 0.525391H7.85931C8.03131 0.525391 8.18114 0.589231 8.30883 0.716911C8.43649 0.844578 8.50033 0.994419 8.50033 1.16643H11.417C11.535 1.16643 11.634 1.20642 11.7139 1.28639C11.7937 1.36635 11.8337 1.46544 11.8337 1.58366C11.8337 1.70187 11.7937 1.80077 11.7139 1.88037C11.634 1.95997 11.535 1.99977 11.417 1.99977H11.0003V12.3203C11.0003 12.6905 10.8685 13.0074 10.6049 13.271C10.3413 13.5346 10.0244 13.6664 9.65418 13.6664H2.34647ZM10.167 1.99977H1.83366V12.3203C1.83366 12.4699 1.88174 12.5927 1.97789 12.6889C2.07404 12.785 2.1969 12.8331 2.34647 12.8331H9.65418C9.80375 12.8331 9.92661 12.785 10.0228 12.6889C10.1189 12.5927 10.167 12.4699 10.167 12.3203V1.99977ZM4.59064 11.1664C4.70885 11.1664 4.80775 11.1265 4.88735 11.0466C4.96694 10.9668 5.00674 10.8678 5.00674 10.7498V4.0831C5.00674 3.96504 4.96676 3.86609 4.88678 3.78622C4.80681 3.70636 4.70772 3.66643 4.58951 3.66643C4.47129 3.66643 4.37238 3.70636 4.29278 3.78622C4.21319 3.86609 4.17339 3.96504 4.17339 4.0831V10.7498C4.17339 10.8678 4.21337 10.9668 4.29335 11.0466C4.37332 11.1265 4.47242 11.1664 4.59064 11.1664ZM7.41114 11.1664C7.52936 11.1664 7.62827 11.1265 7.70787 11.0466C7.78746 10.9668 7.82726 10.8678 7.82726 10.7498V4.0831C7.82726 3.96504 7.78728 3.86609 7.7073 3.78622C7.62733 3.70636 7.52823 3.66643 7.41001 3.66643C7.2918 3.66643 7.1929 3.70636 7.1133 3.78622C7.03371 3.86609 6.99391 3.96504 6.99391 4.0831V10.7498C6.99391 10.8678 7.0339 10.9668 7.11387 11.0466C7.19384 11.1265 7.29293 11.1664 7.41114 11.1664Z" fill="black"/>
</svg>
