<svg width="14" height="14" viewBox="0 0 14 14" fill="none" xmlns="http://www.w3.org/2000/svg">
<path d="M1.16634 12.8335H2.0814L10.9965 3.91843L10.0814 3.00337L1.16634 11.9184V12.8335ZM1.00607 13.6668C0.815376 13.6668 0.655522 13.6023 0.526508 13.4733C0.397508 13.3443 0.333008 13.1845 0.333008 12.9938V12.1268C0.333008 11.9425 0.369334 11.7669 0.441987 11.6C0.514626 11.433 0.611313 11.2892 0.73205 11.1684L11.317 0.572267C11.4023 0.496142 11.4966 0.437315 11.5998 0.395788C11.7029 0.35426 11.8105 0.333496 11.9224 0.333496C12.0343 0.333496 12.1428 0.351122 12.2477 0.386372C12.3527 0.421635 12.4495 0.485205 12.5381 0.57708L13.4276 1.47131C13.5194 1.55999 13.5822 1.65727 13.6159 1.76314C13.6495 1.86902 13.6663 1.97489 13.6663 2.08077C13.6663 2.1937 13.6473 2.30174 13.6092 2.40489C13.5712 2.50804 13.5106 2.6023 13.4276 2.68766L2.8314 13.2678C2.71068 13.3885 2.56684 13.4852 2.39988 13.5578C2.23291 13.6305 2.05731 13.6668 1.87307 13.6668H1.00607ZM10.5309 3.46893L10.0814 3.00337L10.9965 3.91843L10.5309 3.46893Z" fill="black"/>
</svg>
